<?xml version="1.0" standalone="no"?>
<!DOCTYPE svg PUBLIC "-//W3C//DTD SVG 20010904//EN"
 "http://www.w3.org/TR/2001/REC-SVG-20010904/DTD/svg10.dtd">
<svg version="1.0" xmlns="http://www.w3.org/2000/svg"
 width="800.000000pt" height="800.000000pt" viewBox="0 0 800.000000 800.000000"
 preserveAspectRatio="xMidYMid meet">

<g transform="translate(0.000000,800.000000) scale(0.100000,-0.100000)"
fill="#000000" stroke="none">
<path d="M0 4000 l0 -4000 4000 0 4000 0 0 4000 0 4000 -4000 0 -4000 0 0
-4000z m5495 420 l0 -1145 -235 0 -235 0 -3 1135 c-1 624 0 1141 3 1148 3 10
56 12 237 10 l233 -3 0 -1145z m-2896 1065 c163 -37 285 -86 399 -163 11 -7
-10 -56 -92 -220 l-106 -212 -62 34 c-35 19 -101 47 -148 62 -77 25 -99 28
-235 28 -173 1 -229 -11 -365 -76 -145 -69 -271 -219 -323 -383 -33 -105 -31
-272 5 -373 37 -104 82 -174 163 -256 121 -123 268 -182 480 -193 161 -8 329
31 437 102 21 14 40 25 43 25 3 0 52 -95 110 -211 123 -244 126 -211 -30 -289
-180 -89 -389 -127 -650 -117 -193 8 -306 37 -477 123 -300 151 -530 423 -615
730 -26 90 -28 114 -28 269 0 146 3 182 23 257 116 438 469 769 927 868 76 17
119 19 280 16 127 -3 214 -10 264 -21z m1344 -821 c93 -21 137 -41 220 -98
l67 -46 0 60 0 60 235 0 235 0 0 -685 0 -685 -230 0 -230 0 0 81 0 81 -52 -46
c-64 -56 -165 -110 -244 -131 -74 -19 -227 -19 -319 0 -121 25 -208 76 -310
179 -102 103 -150 186 -186 322 -29 110 -29 297 0 407 67 257 270 456 516 507
69 14 222 11 298 -6z m2779 -12 c80 -24 184 -70 198 -87 8 -10 -9 -53 -66
-167 -42 -84 -78 -155 -80 -157 -1 -2 -23 7 -48 19 -63 30 -174 44 -238 30
-116 -24 -205 -102 -248 -217 -53 -141 6 -319 132 -399 56 -36 151 -58 216
-50 46 5 110 24 173 50 12 5 32 -28 93 -154 90 -185 92 -170 -24 -214 -129
-49 -173 -58 -310 -63 -159 -6 -266 14 -381 72 -263 132 -419 371 -419 640 0
324 236 616 570 705 100 27 329 22 432 -8z"/>
<path d="M3816 4260 c-139 -55 -206 -153 -206 -306 0 -183 113 -301 300 -312
61 -3 86 0 135 19 154 58 231 233 179 408 -22 74 -107 160 -187 190 -72 26
-155 27 -221 1z"/>
</g>
</svg>
